<?xml version="1.0" standalone="no"?><!DOCTYPE svg PUBLIC "-//W3C//DTD SVG 1.1//EN" "http://www.w3.org/Graphics/SVG/1.1/DTD/svg11.dtd"><svg t="1717571097580" class="icon" viewBox="0 0 1024 1024" version="1.1" xmlns="http://www.w3.org/2000/svg" p-id="11442" xmlns:xlink="http://www.w3.org/1999/xlink" width="60" height="60"><path d="M512 85.333333a42.666667 42.666667 0 0 1 42.368 37.674667L554.666667 128.426667a42.666667 42.666667 0 0 1-85.034667 4.992L469.333333 128a42.666667 42.666667 0 0 1 42.666667-42.666667z m208.810667 75.648a42.666667 42.666667 0 0 0-85.034667 4.992l0.256 5.418667a42.666667 42.666667 0 0 0 85.077333-4.992l-0.298666-5.418667zM812.373333 229.973333a42.666667 42.666667 0 0 1 42.368 37.674667l0.298667 5.418667a42.666667 42.666667 0 0 1-85.034667 4.992l-0.298666-5.418667a42.666667 42.666667 0 0 1 42.666666-42.666667zM512 256a256 256 0 1 0 0 512 256 256 0 0 0 0-512z m0 85.333333a170.666667 170.666667 0 1 1 0 341.333334 170.666667 170.666667 0 0 1 0-341.333334z m-85.333333 170.666667a85.333333 85.333333 0 1 1 170.666666 0 85.333333 85.333333 0 0 1-170.666666 0z m251.733333 303.36a42.666667 42.666667 0 0 1 42.410667 37.674667l0.298666 5.418666a42.666667 42.666667 0 0 1-85.077333 4.992l-0.298667-5.418666a42.666667 42.666667 0 0 1 42.666667-42.666667z m176.341333-68.992a42.666667 42.666667 0 0 0-85.034666 4.992l0.298666 5.418667a42.666667 42.666667 0 0 0 85.034667-4.992l-0.298667-5.418667zM886.186667 554.666667a42.666667 42.666667 0 0 1 42.410666 37.674666l0.256 5.418667a42.666667 42.666667 0 0 1-85.034666 4.992L843.52 597.333333a42.666667 42.666667 0 0 1 42.666667-42.666666z m42.410666-132.992A42.666667 42.666667 0 0 0 843.52 426.666667l0.298667 5.418666a42.666667 42.666667 0 0 0 85.034666-4.992l-0.256-5.418666z m-540.586666-260.693334A42.666667 42.666667 0 0 0 302.933333 165.973333l0.298667 5.418667A42.666667 42.666667 0 0 0 388.266667 166.4l-0.256-5.418667zM211.626667 229.973333a42.666667 42.666667 0 0 1 42.368 37.674667l0.298666 5.418667a42.666667 42.666667 0 0 1-85.034666 4.992L168.96 272.64a42.666667 42.666667 0 0 1 42.666667-42.666667z m-31.445334 191.701334A42.666667 42.666667 0 0 0 95.146667 426.666667l0.298666 5.418666a42.666667 42.666667 0 0 0 85.034667-4.992l-0.256-5.418666zM137.813333 554.666667a42.666667 42.666667 0 0 1 42.410667 37.674666l0.256 5.418667a42.666667 42.666667 0 0 1-85.034667 4.992L95.146667 597.333333a42.666667 42.666667 0 0 1 42.666666-42.666666z m116.224 191.701333a42.666667 42.666667 0 0 0-85.034666 4.992l0.298666 5.418667a42.666667 42.666667 0 0 0 85.034667-4.992l-0.298667-5.418667zM345.6 815.36a42.666667 42.666667 0 0 1 42.410667 37.674667l0.256 5.418666a42.666667 42.666667 0 0 1-85.034667 4.992L302.933333 858.026667a42.666667 42.666667 0 0 1 42.666667-42.666667z m208.768 75.648A42.666667 42.666667 0 0 0 469.333333 896l0.298667 5.418667A42.666667 42.666667 0 0 0 554.666667 896.426667l-0.298667-5.418667z" p-id="11443" fill="#ffffff"></path></svg>